<svg xmlns="http://www.w3.org/2000/svg" xmlns:xlink="http://www.w3.org/1999/xlink" viewBox="0 0 367.44 367.44"><defs><style>.cls-1{opacity:0.9;}.cls-2{fill:url(#Steel_Radial);}.cls-3{fill:url(#Steel_Radial-2);}.cls-4{fill:#fff;}.cls-5{opacity:0.85;fill:url(#Steel_Radial-3);}.cls-6{fill:url(#Tin_Radial);}.cls-7{fill:url(#Steel_Radial-4);}.cls-8{fill:url(#Pewter_Radial);}.cls-9{fill:url(#Pewter_Radial-2);}</style><radialGradient id="Steel_Radial" cx="326.91" cy="87.03" r="26.15" gradientTransform="translate(-857.25 -118.5) scale(3.19 2.92)" gradientUnits="userSpaceOnUse"><stop offset="0" stop-color="#e5e2df"/><stop offset="0" stop-color="#f1efee"/><stop offset="0" stop-color="#fff"/><stop offset="0.13" stop-color="#f0f0f1"/><stop offset="0.37" stop-color="#c9cacb"/><stop offset="0.52" stop-color="#adaeb0"/><stop offset="0.6" stop-color="#a3a5a7"/><stop offset="0.74" stop-color="#898d90"/><stop offset="0.91" stop-color="#5f6769"/><stop offset="1" stop-color="#465053"/></radialGradient><radialGradient id="Steel_Radial-2" cx="326.88" cy="82.11" r="28.2" xlink:href="#Steel_Radial"/><radialGradient id="Steel_Radial-3" cx="326.28" cy="104.95" r="40.21" xlink:href="#Steel_Radial"/><radialGradient id="Tin_Radial" cx="326.28" cy="109.62" r="40.21" gradientTransform="translate(-857.25 -118.5) scale(3.19 2.92)" gradientUnits="userSpaceOnUse"><stop offset="0.01" stop-color="#c4c6c8"/><stop offset="0.3" stop-color="#bcbec0"/><stop offset="0.66" stop-color="#a7a9ac"/><stop offset="1" stop-color="#9b9da0"/></radialGradient><radialGradient id="Steel_Radial-4" cx="326.28" cy="107.36" r="40.21" xlink:href="#Steel_Radial"/><radialGradient id="Pewter_Radial" cx="293.46" cy="125.23" r="19.08" gradientTransform="translate(-857.25 -118.5) scale(3.19 2.92)" gradientUnits="userSpaceOnUse"><stop offset="0.01" stop-color="#aeb0b7"/><stop offset="0.32" stop-color="#aaaaa8"/><stop offset="0.35" stop-color="#a9a9a6"/><stop offset="0.5" stop-color="#9a9e9e"/><stop offset="0.67" stop-color="#838c92"/><stop offset="1" stop-color="#657076"/></radialGradient><radialGradient id="Pewter_Radial-2" cx="359.04" cy="125.11" r="19.18" xlink:href="#Pewter_Radial"/></defs><title>Asset 22md-svg</title><g id="Layer_2" data-name="Layer 2"><g id="Layer_1-2" data-name="Layer 1"><rect class="cls-1" width="367.44" height="367.44" rx="28.64" ry="28.64"/><polygon class="cls-2" points="103.33 58.62 185.62 168.61 268.15 58.36 266.86 102.03 185.62 212.93 104.39 102.52 103.33 58.62"/><polygon class="cls-3" points="90.6 43.81 185.62 154.41 280.65 43.81 266.86 102.03 185.62 198.73 104.39 102.52 90.6 43.81"/><polygon class="cls-4" points="88.14 59.48 88.12 59.48 88.12 59.46 88.14 59.48"/><polygon class="cls-5" points="58.16 68.1 183.72 239.34 309.29 68.1 309.29 136.42 183.72 307.83 58.16 137.17 58.16 68.1"/><polygon class="cls-6" points="58.16 81.72 183.72 252.96 309.29 81.72 309.29 150.05 183.72 321.46 58.16 150.8 58.16 81.72"/><polygon class="cls-7" points="58.15 75.13 183.71 246.36 309.28 75.13 309.28 143.45 183.71 314.86 58.15 144.2 58.15 75.13"/><polygon class="cls-8" points="58.16 170.72 99.89 227.43 99.89 323.63 58.16 323.63 58.16 170.72"/><polygon class="cls-9" points="309.29 170 267.2 227.47 267.2 323.63 309.29 323.63 309.29 170"/></g></g></svg>